<svg width="50" height="50" viewBox="0 0 50 50" fill="none" xmlns="http://www.w3.org/2000/svg">
<path d="M41.6665 12.4993V12.9993H30.979C24.7915 12.9993 21.9165 15.8743 21.9165 22.0618V32.7077H20.3123V40.1035H21.9165V43.2285H10.3123C9.45817 43.2285 8.74984 42.5202 8.74984 41.666C8.74984 40.8118 9.45817 40.1035 10.3123 40.1035H17.1873V32.7077H12.4998C5.979 32.7077 4.229 31.1035 4.1665 24.791V12.4993C4.1665 5.83268 5.83317 4.16602 12.4998 4.16602H33.3332C39.9998 4.16602 41.6665 5.83268 41.6665 12.4993Z" fill="#F5F5F5"/>
<path d="M41.6665 16.2292C41.1457 16.1667 40.5415 16.125 39.8957 16.125H30.979C26.5207 16.125 25.0415 17.6042 25.0415 22.0625V40.1041C25.0623 41.3958 25.2082 42.4166 25.5207 43.2291C26.2498 45.125 27.8957 45.8333 30.979 45.8333H39.8957C44.354 45.8333 45.8332 44.3541 45.8332 39.8958V22.0625C45.8332 18.25 44.7498 16.625 41.6665 16.2292ZM35.4373 21.0208C37.2498 21.0208 38.7082 22.4792 38.7082 24.2917C38.7082 26.1042 37.2498 27.5625 35.4373 27.5625C33.6248 27.5625 32.1665 26.1042 32.1665 24.2917C32.1665 22.4792 33.6248 21.0208 35.4373 21.0208ZM35.4373 39.8958C32.979 39.8958 30.979 37.8958 30.979 35.4375C30.979 34.4167 31.3332 33.4583 31.9165 32.7083C32.729 31.6667 33.9998 30.9792 35.4373 30.9792C36.5623 30.9792 37.5832 31.3958 38.354 32.0625C39.2915 32.8958 39.8957 34.1042 39.8957 35.4375C39.8957 37.8958 37.8957 39.8958 35.4373 39.8958Z" fill="#F5F5F5"/>
<path d="M41.6665 16.2292C41.1457 16.1667 40.5415 16.125 39.8957 16.125H30.979C26.5207 16.125 25.0415 17.6042 25.0415 22.0625V40.1041C25.0623 41.3958 25.2082 42.4166 25.5207 43.2291C26.2498 45.125 27.8957 45.8333 30.979 45.8333H39.8957C44.354 45.8333 45.8332 44.3541 45.8332 39.8958V22.0625C45.8332 18.25 44.7498 16.625 41.6665 16.2292ZM35.4373 21.0208C37.2498 21.0208 38.7082 22.4792 38.7082 24.2917C38.7082 26.1042 37.2498 27.5625 35.4373 27.5625C33.6248 27.5625 32.1665 26.1042 32.1665 24.2917C32.1665 22.4792 33.6248 21.0208 35.4373 21.0208ZM35.4373 39.8958C32.979 39.8958 30.979 37.8958 30.979 35.4375C30.979 34.4167 31.3332 33.4583 31.9165 32.7083C32.729 31.6667 33.9998 30.9792 35.4373 30.9792C36.5623 30.9792 37.5832 31.3958 38.354 32.0625C39.2915 32.8958 39.8957 34.1042 39.8957 35.4375C39.8957 37.8958 37.8957 39.8958 35.4373 39.8958Z" fill="#F5F5F5"/>
</svg>
