<svg width="44" height="44" viewBox="0 0 44 44" fill="none" xmlns="http://www.w3.org/2000/svg">
<g clip-path="url(#clip0_1837_332)">
<path d="M34.6354 1.82227H9.11458C6.69813 1.82516 4.38149 2.78637 2.6728 4.49506C0.964108 6.20375 0.00289453 8.5204 0 10.9368L0 25.5202C0.00289453 27.9366 0.964108 30.2533 2.6728 31.962C4.38149 33.6707 6.69813 34.6319 9.11458 34.6348H20.0521V38.2806H12.7604C12.2769 38.2806 11.8133 38.4727 11.4714 38.8145C11.1296 39.1564 10.9375 39.62 10.9375 40.1035C10.9375 40.587 11.1296 41.0506 11.4714 41.3925C11.8133 41.7344 12.2769 41.9264 12.7604 41.9264H30.9896C31.4731 41.9264 31.9367 41.7344 32.2786 41.3925C32.6204 41.0506 32.8125 40.587 32.8125 40.1035C32.8125 39.62 32.6204 39.1564 32.2786 38.8145C31.9367 38.4727 31.4731 38.2806 30.9896 38.2806H23.6979V34.6348H34.6354C37.0519 34.6319 39.3685 33.6707 41.0772 31.962C42.7859 30.2533 43.7471 27.9366 43.75 25.5202V10.9368C43.7471 8.5204 42.7859 6.20375 41.0772 4.49506C39.3685 2.78637 37.0519 1.82516 34.6354 1.82227ZM34.6354 20.0514H29.2305L26.1315 24.709C25.9645 24.9593 25.7381 25.1644 25.4725 25.306C25.2069 25.4475 24.9103 25.5211 24.6094 25.5202C24.5711 25.5202 24.5328 25.5202 24.4964 25.5202C24.1774 25.5005 23.8692 25.3974 23.6027 25.2211C23.3362 25.0448 23.1207 24.8016 22.9779 24.5158L18.9146 16.3837L17.0115 19.2402C16.8449 19.4898 16.6194 19.6944 16.3548 19.836C16.0902 19.9775 15.7948 20.0515 15.4948 20.0514H9.11458C8.63112 20.0514 8.16745 19.8594 7.82559 19.5175C7.48372 19.1756 7.29167 18.712 7.29167 18.2285C7.29167 17.745 7.48372 17.2814 7.82559 16.9395C8.16745 16.5977 8.63112 16.4056 9.11458 16.4056H14.5195L17.6185 11.748C17.7939 11.4793 18.038 11.2623 18.3256 11.1197C18.6131 10.9771 18.9335 10.9139 19.2536 10.9368C19.5726 10.9565 19.8808 11.0596 20.1473 11.2359C20.4138 11.4122 20.6293 11.6555 20.7721 11.9413L24.8354 20.0697L26.7385 17.2131C26.9055 16.9642 27.1312 16.7603 27.3958 16.6195C27.6603 16.4786 27.9555 16.4052 28.2552 16.4056H34.6354C35.1189 16.4056 35.5826 16.5977 35.9244 16.9395C36.2663 17.2814 36.4583 17.745 36.4583 18.2285C36.4583 18.712 36.2663 19.1756 35.9244 19.5175C35.5826 19.8594 35.1189 20.0514 34.6354 20.0514Z" fill="#F5F5F5"/>
</g>
<defs>
<clipPath id="clip0_1837_332">
<rect width="43.75" height="43.75" fill="white"/>
</clipPath>
</defs>
</svg>
