<svg width="44" height="44" viewBox="0 0 44 44" fill="none" xmlns="http://www.w3.org/2000/svg">
<g clip-path="url(#clip0_1837_335)">
<path d="M36.5623 30.6254L36.7446 30.8077C37.1584 31.2251 37.6711 31.531 38.2349 31.6971C38.7987 31.8631 39.3953 31.8839 39.9693 31.7575C40.5341 31.6389 41.0599 31.3803 41.4985 31.0054C41.9372 30.6305 42.2745 30.1513 42.4795 29.6119C43.486 26.9692 43.9671 24.1555 43.8959 21.3286C43.6907 15.776 41.4069 10.5031 37.4971 6.55517C33.5873 2.60719 28.3369 0.272272 22.7865 0.0132125C19.8516 -0.0888375 16.9262 0.401111 14.1847 1.45385C11.4432 2.50659 8.94168 4.10056 6.82938 6.14074C4.71707 8.18091 3.03719 10.6255 1.88987 13.3288C0.742558 16.0321 0.151307 18.9388 0.151367 21.8754C0.158122 27.675 2.46497 33.2351 6.56587 37.3359C10.6668 41.4368 16.2268 43.7437 22.0264 43.7504C22.6425 43.7504 23.2477 43.7103 23.8493 43.6593C24.3057 43.6208 24.731 43.4119 25.0404 43.0741C25.3498 42.7363 25.5207 42.2945 25.5191 41.8364L25.4607 35.2958C25.446 34.0033 25.8168 32.7357 26.5258 31.6549C27.2348 30.5741 28.2498 29.7292 29.4412 29.2279C30.6327 28.7267 31.9465 28.592 33.2149 28.8409C34.4832 29.0898 35.6487 29.7111 36.5623 30.6254ZM31.1993 14.6749C31.722 14.5362 32.274 14.5556 32.7857 14.7307C33.2973 14.9057 33.7456 15.2286 34.0738 15.6584C34.402 16.0882 34.5954 16.6056 34.6295 17.1453C34.6636 17.685 34.5369 18.2227 34.2655 18.6904C33.994 19.1581 33.59 19.5348 33.1045 19.7729C32.6189 20.011 32.0737 20.0998 31.5377 20.028C31.0017 19.9563 30.4991 19.7272 30.0933 19.3698C29.6874 19.0123 29.3967 18.5426 29.2579 18.02C29.1657 17.6729 29.1427 17.311 29.1904 16.955C29.238 16.599 29.3554 16.2559 29.5356 15.9453C29.7159 15.6347 29.9556 15.3626 30.2411 15.1446C30.5265 14.9266 30.8521 14.767 31.1993 14.6749ZM14.3738 30.8989C13.8511 31.0376 13.299 31.0182 12.7874 30.8431C12.2757 30.6681 11.8274 30.3452 11.4992 29.9154C11.1711 29.4856 10.9777 28.9682 10.9436 28.4285C10.9094 27.8888 11.0361 27.3511 11.3076 26.8834C11.579 26.4157 11.983 26.039 12.4686 25.8009C12.9541 25.5628 13.4993 25.474 14.0353 25.5458C14.5713 25.6175 15.074 25.8466 15.4798 26.204C15.8856 26.5615 16.1763 27.0312 16.3152 27.5538C16.4074 27.9009 16.4303 28.2628 16.3827 28.6188C16.335 28.9748 16.2177 29.3179 16.0374 29.6285C15.8571 29.9392 15.6174 30.2112 15.332 30.4292C15.0465 30.6472 14.7209 30.8068 14.3738 30.8989ZM14.3738 19.9614C13.8511 20.1001 13.299 20.0807 12.7874 19.9056C12.2757 19.7306 11.8274 19.4077 11.4992 18.9779C11.1711 18.5482 10.9777 18.0307 10.9436 17.491C10.9094 16.9513 11.0361 16.4136 11.3076 15.9459C11.579 15.4782 11.983 15.1015 12.4686 14.8634C12.9541 14.6253 13.4993 14.5365 14.0353 14.6083C14.5713 14.68 15.074 14.9091 15.4798 15.2665C15.8856 15.624 16.1763 16.0937 16.3152 16.6163C16.4074 16.9634 16.4303 17.3253 16.3827 17.6813C16.335 18.0373 16.2177 18.3804 16.0374 18.691C15.8571 19.0017 15.6174 19.2737 15.332 19.4917C15.0465 19.7097 14.7209 19.8693 14.3738 19.9614ZM23.4883 14.4926C22.9657 14.6313 22.4136 14.6119 21.9019 14.4369C21.3903 14.2618 20.942 13.939 20.6138 13.5092C20.2856 13.0794 20.0923 12.5619 20.0581 12.0223C20.024 11.4826 20.1507 10.9449 20.4221 10.4772C20.6936 10.0095 21.0976 9.63274 21.5832 9.39464C22.0687 9.15655 22.6139 9.06777 23.1499 9.13953C23.6859 9.21129 24.1886 9.44036 24.5944 9.79779C25.0002 10.1552 25.2909 10.6249 25.4298 11.1476C25.522 11.4947 25.5449 11.8566 25.4973 12.2126C25.4496 12.5685 25.3323 12.9117 25.152 13.2223C24.9717 13.5329 24.732 13.805 24.4465 14.023C24.1611 14.2409 23.8355 14.4005 23.4883 14.4926Z" fill="#F5F5F5"/>
</g>
<defs>
<clipPath id="clip0_1837_335">
<rect width="43.75" height="43.75" fill="white"/>
</clipPath>
</defs>
</svg>
