<svg width="44" height="44" viewBox="0 0 44 44" fill="none" xmlns="http://www.w3.org/2000/svg">
<g clip-path="url(#clip0_1837_329)">
<path d="M23.6979 40.1034H10.3596C7.92915 40.0596 5.58676 39.186 3.72125 37.6276C1.85574 36.0691 0.579314 33.9195 0.103857 31.5356C-0.20573 29.4844 0.135048 27.3877 1.07832 25.54C2.0216 23.6924 3.51997 22.1866 5.36297 21.2343C3.78041 18.3566 3.26398 15.0127 3.90464 11.7916C4.52781 8.60577 6.19614 5.7189 8.64536 3.58832C11.0946 1.45774 14.1847 0.205258 17.4261 0.0292684C20.6676 -0.146721 23.8751 0.763846 26.5406 2.61673C29.2061 4.46962 31.1772 7.15889 32.1416 10.2586C32.2334 10.5723 32.4015 10.8583 32.6308 11.0912C32.8602 11.324 33.1437 11.4964 33.4559 11.5929C35.4649 12.2082 37.3176 13.249 38.8882 14.6445C38.6877 14.6299 38.4908 14.5825 38.2812 14.5825C36.1475 14.5854 34.0821 15.3354 32.4438 16.7024C30.8054 18.0693 29.6975 19.9669 29.3125 22.0656L27.7684 22.8385C26.5058 22.2028 25.1115 21.8725 23.6979 21.8742C21.2805 21.8742 18.9622 22.8345 17.2529 24.5438C15.5436 26.2531 14.5833 28.5714 14.5833 30.9888C14.5833 33.4061 15.5436 35.7244 17.2529 37.4338C18.9622 39.1431 21.2805 40.1034 23.6979 40.1034ZM38.2812 29.1659C39.3628 29.1659 40.4201 28.8451 41.3195 28.2442C42.2188 27.6433 42.9198 26.7892 43.3337 25.7899C43.7476 24.7906 43.8559 23.691 43.6449 22.6302C43.4339 21.5694 42.913 20.5949 42.1482 19.8301C41.3834 19.0653 40.4089 18.5444 39.3481 18.3334C38.2873 18.1224 37.1877 18.2307 36.1884 18.6446C35.1891 19.0585 34.335 19.7595 33.7341 20.6588C33.1332 21.5582 32.8125 22.6155 32.8125 23.6971C32.821 23.9189 32.8436 24.1399 32.8799 24.3588L27.4841 27.0586C26.7123 26.3118 25.7377 25.8088 24.6819 25.6123C23.626 25.4158 22.5357 25.5346 21.547 25.9537C20.5582 26.3729 19.7147 27.0739 19.1218 27.9693C18.5288 28.8647 18.2126 29.9148 18.2126 30.9888C18.2126 32.0627 18.5288 33.1129 19.1218 34.0083C19.7147 34.9037 20.5582 35.6047 21.547 36.0238C22.5357 36.443 23.626 36.5617 24.6819 36.3652C25.7377 36.1687 26.7123 35.6657 27.4841 34.919L32.8799 37.6187C32.8436 37.8377 32.821 38.0587 32.8125 38.2804C32.8061 39.5488 33.2386 40.7803 34.0366 41.7661C34.8346 42.752 35.9491 43.4314 37.1909 43.6893C38.4328 43.9472 39.7256 43.7677 40.8502 43.1811C41.9748 42.5946 42.8619 41.6371 43.361 40.4711C43.8602 39.3051 43.9407 38.0023 43.589 36.7838C43.2372 35.5652 42.4748 34.5057 41.431 33.7851C40.3872 33.0645 39.1263 32.7271 37.8622 32.8301C36.598 32.9331 35.4084 33.4702 34.495 34.3502L29.0992 31.6505C29.1355 31.4316 29.158 31.2105 29.1666 30.9888C29.158 30.767 29.1355 30.546 29.0992 30.327L34.495 27.6273C35.5093 28.6125 36.8672 29.1642 38.2812 29.1659Z" fill="#F5F5F5"/>
</g>
<defs>
<clipPath id="clip0_1837_329">
<rect width="43.75" height="43.75" fill="white"/>
</clipPath>
</defs>
</svg>
