<svg width="44" height="44" viewBox="0 0 44 44" fill="none" xmlns="http://www.w3.org/2000/svg">
<g clip-path="url(#clip0_1837_344)">
<path d="M1.82292 8.65933H6.81042C7.20168 10.0989 8.05578 11.3698 9.24096 12.2759C10.4261 13.1819 11.8765 13.6728 13.3684 13.6728C14.8602 13.6728 16.3106 13.1819 17.4958 12.2759C18.6809 11.3698 19.535 10.0989 19.9263 8.65933H41.9271C42.4105 8.65933 42.8742 8.46727 43.2161 8.12541C43.5579 7.78354 43.75 7.31988 43.75 6.83641C43.75 6.35294 43.5579 5.88928 43.2161 5.54741C42.8742 5.20555 42.4105 5.01349 41.9271 5.01349H19.9263C19.535 3.57388 18.6809 2.30301 17.4958 1.39695C16.3106 0.490895 14.8602 0 13.3684 0C11.8765 0 10.4261 0.490895 9.24096 1.39695C8.05578 2.30301 7.20168 3.57388 6.81042 5.01349H1.82292C1.33945 5.01349 0.875783 5.20555 0.53392 5.54741C0.192057 5.88928 0 6.35294 0 6.83641C0 7.31988 0.192057 7.78354 0.53392 8.12541C0.875783 8.46727 1.33945 8.65933 1.82292 8.65933Z" fill="#F5F5F5"/>
<path d="M41.9271 20.0524H36.9396C36.549 18.6124 35.6952 17.3411 34.5101 16.4347C33.325 15.5282 31.8745 15.0371 30.3826 15.0371C28.8906 15.0371 27.4401 15.5282 26.255 16.4347C25.0699 17.3411 24.2161 18.6124 23.8255 20.0524H1.82292C1.33945 20.0524 0.875783 20.2444 0.53392 20.5863C0.192057 20.9282 0 21.3918 0 21.8753C0 22.3588 0.192057 22.8224 0.53392 23.1643C0.875783 23.5062 1.33945 23.6982 1.82292 23.6982H23.8255C24.2161 25.1382 25.0699 26.4095 26.255 27.3159C27.4401 28.2224 28.8906 28.7135 30.3826 28.7135C31.8745 28.7135 33.325 28.2224 34.5101 27.3159C35.6952 26.4095 36.549 25.1382 36.9396 23.6982H41.9271C42.4105 23.6982 42.8742 23.5062 43.2161 23.1643C43.5579 22.8224 43.75 22.3588 43.75 21.8753C43.75 21.3918 43.5579 20.9282 43.2161 20.5863C42.8742 20.2444 42.4105 20.0524 41.9271 20.0524Z" fill="#F5F5F5"/>
<path d="M41.9271 35.0916H19.9263C19.535 33.652 18.6809 32.3811 17.4958 31.4751C16.3106 30.569 14.8602 30.0781 13.3684 30.0781C11.8765 30.0781 10.4261 30.569 9.24096 31.4751C8.05578 32.3811 7.20168 33.652 6.81042 35.0916H1.82292C1.33945 35.0916 0.875783 35.2837 0.53392 35.6255C0.192057 35.9674 0 36.4311 0 36.9145C0 37.398 0.192057 37.8617 0.53392 38.2035C0.875783 38.5454 1.33945 38.7375 1.82292 38.7375H6.81042C7.20168 40.1771 8.05578 41.4479 9.24096 42.354C10.4261 43.26 11.8765 43.7509 13.3684 43.7509C14.8602 43.7509 16.3106 43.26 17.4958 42.354C18.6809 41.4479 19.535 40.1771 19.9263 38.7375H41.9271C42.4105 38.7375 42.8742 38.5454 43.2161 38.2035C43.5579 37.8617 43.75 37.398 43.75 36.9145C43.75 36.4311 43.5579 35.9674 43.2161 35.6255C42.8742 35.2837 42.4105 35.0916 41.9271 35.0916Z" fill="#F5F5F5"/>
</g>
<defs>
<clipPath id="clip0_1837_344">
<rect width="43.75" height="43.75" fill="white"/>
</clipPath>
</defs>
</svg>
