<svg width="35" height="44" viewBox="0 0 35 44" fill="none" xmlns="http://www.w3.org/2000/svg">
<path d="M26.52 0H8.14666C2.16667 0 0 2.16667 0 8.255V35.0783C0 41.1667 2.16667 43.3333 8.14666 43.3333H26.4983C32.5 43.3333 34.6667 41.1667 34.6667 35.0783V8.255C34.6667 2.16667 32.5 0 26.52 0ZM17.3333 37.4833C15.2533 37.4833 13.5417 35.7717 13.5417 33.6917C13.5417 31.6117 15.2533 29.9 17.3333 29.9C19.4133 29.9 21.125 31.6117 21.125 33.6917C21.125 35.7717 19.4133 37.4833 17.3333 37.4833ZM21.6667 9.20833H13C12.1117 9.20833 11.375 8.47167 11.375 7.58333C11.375 6.695 12.1117 5.95833 13 5.95833H21.6667C22.555 5.95833 23.2917 6.695 23.2917 7.58333C23.2917 8.47167 22.555 9.20833 21.6667 9.20833Z" fill="#F5F5F5"/>
</svg>
